<svg width="100" height="100" viewBox="0 0 100 100" fill="none" xmlns="http://www.w3.org/2000/svg">
<g filter="url(#filter0_d_147_152)">
<circle cx="46" cy="45" r="35" fill="#FF5300"/>
</g>
<path d="M42.25 32.5038V32.5H55.9975C56.6875 32.5 57.25 33.0688 57.25 33.74V56.26C57.2497 56.589 57.1188 56.9044 56.886 57.1369C56.6533 57.3694 56.3378 57.5 56.0088 57.5H35.9913C35.8271 57.4989 35.6648 57.4654 35.5136 57.4015C35.3624 57.3376 35.2252 57.2446 35.11 57.1277C34.9947 57.0108 34.9036 56.8724 34.8418 56.7203C34.7801 56.5682 34.7489 56.4054 34.75 56.2412V40L42.25 32.5038ZM38.2875 40H42.25V36.0375L38.2875 40ZM44.75 35V41.25C44.75 41.5815 44.6183 41.8995 44.3839 42.1339C44.1495 42.3683 43.8316 42.5 43.5 42.5H37.25V55H54.75V35H44.75Z" fill="white"/>
<defs>
<filter id="filter0_d_147_152" x="0" y="0" width="100" height="100" filterUnits="userSpaceOnUse" color-interpolation-filters="sRGB">
<feFlood flood-opacity="0" result="BackgroundImageFix"/>
<feColorMatrix in="SourceAlpha" type="matrix" values="0 0 0 0 0 0 0 0 0 0 0 0 0 0 0 0 0 0 127 0" result="hardAlpha"/>
<feOffset dx="4" dy="5"/>
<feGaussianBlur stdDeviation="7.5"/>
<feColorMatrix type="matrix" values="0 0 0 0 1 0 0 0 0 0.326087 0 0 0 0 0 0 0 0 0.4 0"/>
<feBlend mode="normal" in2="BackgroundImageFix" result="effect1_dropShadow_147_152"/>
<feBlend mode="normal" in="SourceGraphic" in2="effect1_dropShadow_147_152" result="shape"/>
</filter>
</defs>
</svg>
